<svg width="265" height="174" viewBox="0 0 265 174" fill="none" xmlns="http://www.w3.org/2000/svg">
<rect width="265" height="174" fill="url(#paint0_linear_740_39)"/>
<path d="M45.9492 83.4824C45.526 83.3197 45.0736 83.2383 44.5918 83.2383C43.6022 83.2383 42.7396 83.5996 42.0039 84.3223C41.2747 85.0384 40.9102 85.8978 40.9102 86.9004C40.9102 87.571 41.0404 88.0951 41.3008 88.4727C41.5612 88.8503 41.916 89.0391 42.3652 89.0391C42.8145 89.0391 43.3092 88.9251 43.8496 88.6973C44.3965 88.4629 45.1973 87.9583 46.252 87.1836V93.541C44.8652 94.1009 43.3906 94.3809 41.8281 94.3809C40.2721 94.3809 38.8366 94.0814 37.5215 93.4824C35.4316 92.5254 34.0547 91.028 33.3906 88.9902C33.1693 88.2936 33.0553 87.5254 33.0488 86.6855C33.0488 85.8457 33.153 85.0417 33.3613 84.2734C33.5697 83.5052 33.8724 82.7956 34.2695 82.1445C35.0638 80.8359 36.1771 79.8105 37.6094 79.0684C39.0482 78.3262 40.6953 77.9583 42.5508 77.9648C43.9635 77.9648 45.0964 78.1243 45.9492 78.4434V83.4824ZM56.9453 85.3184C56.8151 85.2533 56.6458 85.2207 56.4375 85.2207C56.2357 85.2207 56.0111 85.2826 55.7637 85.4062C55.5163 85.5234 55.2721 85.6862 55.0312 85.8945C54.5234 86.3372 54.097 86.8743 53.752 87.5059C53.4069 88.1374 53.2344 88.7201 53.2344 89.2539C53.2344 89.7812 53.4362 90.1361 53.8398 90.3184C53.9831 90.3835 54.1589 90.416 54.3672 90.416C54.5755 90.416 54.7936 90.3542 55.0215 90.2305C55.2493 90.1003 55.4772 89.9277 55.7051 89.7129C56.1803 89.2637 56.597 88.7201 56.9551 88.082C57.3132 87.4375 57.4922 86.8613 57.4922 86.3535C57.4922 85.8457 57.3099 85.5007 56.9453 85.3184ZM55.0508 94.3613C53.1888 94.3613 51.584 93.7721 50.2363 92.5938C48.7975 91.3438 48.0781 89.7715 48.0781 87.877C48.0781 85.9759 48.752 84.4232 50.0996 83.2188C51.4473 82.0078 53.1107 81.4023 55.0898 81.4023C57.069 81.4023 58.7324 81.9948 60.0801 83.1797C61.4277 84.3581 62.1048 85.9368 62.1113 87.916C62.1178 89.1855 61.7956 90.3086 61.1445 91.2852C60.4935 92.2617 59.6243 93.0169 58.5371 93.5508C57.4499 94.0846 56.2878 94.3548 55.0508 94.3613ZM69.6016 94H64.0645V77.5645H69.6016V94ZM80.3828 85.3184C80.2526 85.2533 80.0833 85.2207 79.875 85.2207C79.6732 85.2207 79.4486 85.2826 79.2012 85.4062C78.9538 85.5234 78.7096 85.6862 78.4688 85.8945C77.9609 86.3372 77.5345 86.8743 77.1895 87.5059C76.8444 88.1374 76.6719 88.7201 76.6719 89.2539C76.6719 89.7812 76.8737 90.1361 77.2773 90.3184C77.4206 90.3835 77.5964 90.416 77.8047 90.416C78.013 90.416 78.2311 90.3542 78.459 90.2305C78.6868 90.1003 78.9147 89.9277 79.1426 89.7129C79.6178 89.2637 80.0345 88.7201 80.3926 88.082C80.7507 87.4375 80.9297 86.8613 80.9297 86.3535C80.9297 85.8457 80.7474 85.5007 80.3828 85.3184ZM78.4883 94.3613C76.6263 94.3613 75.0215 93.7721 73.6738 92.5938C72.235 91.3438 71.5156 89.7715 71.5156 87.877C71.5156 85.9759 72.1895 84.4232 73.5371 83.2188C74.8848 82.0078 76.5482 81.4023 78.5273 81.4023C80.5065 81.4023 82.1699 81.9948 83.5176 83.1797C84.8652 84.3581 85.5423 85.9368 85.5488 87.916C85.5553 89.1855 85.2331 90.3086 84.582 91.2852C83.931 92.2617 83.0618 93.0169 81.9746 93.5508C80.8874 94.0846 79.7253 94.3548 78.4883 94.3613ZM96.1641 86.4414C95.5651 86.4414 94.9499 86.6595 94.3184 87.0957C93.6868 87.5319 93.3678 87.9453 93.3613 88.3359V94H87.4824V81.8613H93.3613V83.1602C93.6934 82.6589 94.1035 82.2585 94.5918 81.959C95.0866 81.6595 95.6107 81.4805 96.1641 81.4219V86.4414ZM120.383 86.5781L121.877 86.5684C122.242 86.5684 122.453 86.5651 122.512 86.5586V93.8047C120.227 94.1888 118.404 94.3809 117.043 94.3809C115.682 94.3809 114.406 94.1888 113.215 93.8047C112.023 93.4141 110.992 92.8607 110.119 92.1445C109.247 91.4284 108.563 90.5625 108.068 89.5469C107.574 88.5247 107.326 87.3822 107.326 86.1191C107.326 83.6387 108.312 81.6595 110.285 80.1816C112.264 78.7038 114.8 77.9648 117.893 77.9648C119.41 77.9648 120.611 78.1276 121.496 78.4531C121.652 78.5117 121.737 78.541 121.75 78.541V83.2578C120.793 82.9648 119.914 82.8184 119.113 82.8184C117.655 82.8184 116.512 83.2057 115.686 83.9805C114.859 84.7552 114.449 85.6471 114.455 86.6562C114.455 87.3594 114.647 87.9355 115.031 88.3848C115.422 88.834 115.956 89.0586 116.633 89.0586C116.997 89.0586 117.277 89.013 117.473 88.9219C117.486 88.681 117.492 88.3717 117.492 87.9941V86.5781C118.456 86.5781 119.419 86.5781 120.383 86.5781ZM132.668 85.3379C132.668 84.765 132.401 84.4785 131.867 84.4785C131.255 84.5371 130.858 84.8529 130.676 85.4258C130.585 85.6992 130.52 86.0182 130.48 86.3828C130.448 86.7409 130.396 87.125 130.324 87.5352L132.463 87.0566L132.648 85.5625L132.668 85.3379ZM131.35 89.7812C131.35 89.7812 131.171 89.7812 130.812 89.7812C130.643 89.7812 130.48 89.7747 130.324 89.7617C130.324 90.5365 130.738 90.9596 131.564 91.0312C131.792 91.0508 132.014 91.0605 132.229 91.0605C132.782 91.0605 133.475 90.9336 134.309 90.6797C135.148 90.4258 135.9 90.0124 136.564 89.4395L137.17 92.4766C135.718 93.7331 133.524 94.3613 130.588 94.3613C128.902 94.3613 127.453 93.8698 126.242 92.8867C124.927 91.8125 124.27 90.3249 124.27 88.4238C124.27 86.9915 124.641 85.7057 125.383 84.5664C126.073 83.5247 127.007 82.7337 128.186 82.1934C129.364 81.653 130.637 81.3828 132.004 81.3828C133.775 81.3828 135.113 81.7702 136.018 82.5449C136.929 83.3197 137.382 84.2767 137.375 85.416C137.375 86.5553 136.831 87.5677 135.744 88.4531C134.657 89.3385 133.192 89.7812 131.35 89.7812ZM146.018 85.1621C145.497 85.1621 145.236 85.582 145.236 86.4219V94H139.436V81.8613H142.639L144.035 83.7559C144.556 83.0332 145.275 82.4603 146.193 82.0371C147.118 81.6139 147.98 81.4023 148.781 81.4023C150.253 81.4023 151.418 81.793 152.277 82.5742C153.143 83.3555 153.576 84.4036 153.576 85.7188V94H147.736V88.1406C147.736 86.1549 147.163 85.1621 146.018 85.1621ZM163.801 85.3379C163.801 84.765 163.534 84.4785 163 84.4785C162.388 84.5371 161.991 84.8529 161.809 85.4258C161.717 85.6992 161.652 86.0182 161.613 86.3828C161.581 86.7409 161.529 87.125 161.457 87.5352L163.596 87.0566L163.781 85.5625L163.801 85.3379ZM162.482 89.7812C162.482 89.7812 162.303 89.7812 161.945 89.7812C161.776 89.7812 161.613 89.7747 161.457 89.7617C161.457 90.5365 161.87 90.9596 162.697 91.0312C162.925 91.0508 163.146 91.0605 163.361 91.0605C163.915 91.0605 164.608 90.9336 165.441 90.6797C166.281 90.4258 167.033 90.0124 167.697 89.4395L168.303 92.4766C166.851 93.7331 164.657 94.3613 161.721 94.3613C160.035 94.3613 158.586 93.8698 157.375 92.8867C156.06 91.8125 155.402 90.3249 155.402 88.4238C155.402 86.9915 155.773 85.7057 156.516 84.5664C157.206 83.5247 158.14 82.7337 159.318 82.1934C160.497 81.653 161.77 81.3828 163.137 81.3828C164.908 81.3828 166.245 81.7702 167.15 82.5449C168.062 83.3197 168.514 84.2767 168.508 85.416C168.508 86.5553 167.964 87.5677 166.877 88.4531C165.79 89.3385 164.325 89.7812 162.482 89.7812ZM179.25 86.4414C178.651 86.4414 178.036 86.6595 177.404 87.0957C176.773 87.5319 176.454 87.9453 176.447 88.3359V94H170.568V81.8613H176.447V83.1602C176.779 82.6589 177.189 82.2585 177.678 81.959C178.173 81.6595 178.697 81.4805 179.25 81.4219V86.4414ZM182.326 92.9258C181.805 92.4375 181.389 91.8255 181.076 91.0898C180.77 90.3477 180.617 89.5501 180.617 88.6973C180.617 87.8444 180.702 87.1055 180.871 86.4805C181.21 85.237 181.802 84.1921 182.648 83.3457C183.052 82.929 183.501 82.5775 183.996 82.291C185.012 81.6986 186.083 81.4023 187.209 81.4023C188.342 81.4023 189.335 81.7767 190.188 82.5254C190.461 82.7663 190.699 83.043 190.9 83.3555L192.297 81.8613H195.5V94H192.297L190.9 91.9785C189.833 93.554 188.215 94.3451 186.047 94.3516C185.448 94.3581 184.807 94.2409 184.123 94C183.446 93.7656 182.847 93.4076 182.326 92.9258ZM190.236 85.543C190.002 85.4062 189.722 85.3379 189.396 85.3379C189.071 85.3379 188.726 85.4551 188.361 85.6895C188.003 85.9173 187.681 86.207 187.395 86.5586C186.757 87.3464 186.438 88.1471 186.438 88.9609C186.438 89.5339 186.613 89.9375 186.965 90.1719C187.29 90.3867 187.785 90.3574 188.449 90.084C189.12 89.804 189.715 89.4427 190.236 89V85.543ZM207.014 93.1211C205.777 93.9609 204.465 94.3809 203.078 94.3809C201.698 94.3809 200.575 93.9902 199.709 93.209C198.843 92.4212 198.41 91.3633 198.41 90.0352V84.957H197.297V81.8613H198.41V78.5801L204.25 77.9844V81.8613H207.014V84.957H204.25V88.0234C204.25 88.9414 204.455 89.6087 204.865 90.0254C205.282 90.4355 205.998 90.6406 207.014 90.6406V93.1211ZM217.219 85.3184C217.089 85.2533 216.919 85.2207 216.711 85.2207C216.509 85.2207 216.285 85.2826 216.037 85.4062C215.79 85.5234 215.546 85.6862 215.305 85.8945C214.797 86.3372 214.37 86.8743 214.025 87.5059C213.68 88.1374 213.508 88.7201 213.508 89.2539C213.508 89.7812 213.71 90.1361 214.113 90.3184C214.257 90.3835 214.432 90.416 214.641 90.416C214.849 90.416 215.067 90.3542 215.295 90.2305C215.523 90.1003 215.751 89.9277 215.979 89.7129C216.454 89.2637 216.87 88.7201 217.229 88.082C217.587 87.4375 217.766 86.8613 217.766 86.3535C217.766 85.8457 217.583 85.5007 217.219 85.3184ZM215.324 94.3613C213.462 94.3613 211.857 93.7721 210.51 92.5938C209.071 91.3438 208.352 89.7715 208.352 87.877C208.352 85.9759 209.025 84.4232 210.373 83.2188C211.721 82.0078 213.384 81.4023 215.363 81.4023C217.342 81.4023 219.006 81.9948 220.354 83.1797C221.701 84.3581 222.378 85.9368 222.385 87.916C222.391 89.1855 222.069 90.3086 221.418 91.2852C220.767 92.2617 219.898 93.0169 218.811 93.5508C217.723 94.0846 216.561 94.3548 215.324 94.3613ZM233 86.4414C232.401 86.4414 231.786 86.6595 231.154 87.0957C230.523 87.5319 230.204 87.9453 230.197 88.3359V94H224.318V81.8613H230.197V83.1602C230.529 82.6589 230.939 82.2585 231.428 81.959C231.923 81.6595 232.447 81.4805 233 81.4219V86.4414Z" fill="black"/>
<defs>
<linearGradient id="paint0_linear_740_39" x1="103.5" y1="-11.5" x2="132.5" y2="174" gradientUnits="userSpaceOnUse">
<stop stop-color="#1E1E1E"/>
<stop offset="1" stop-color="#40CD57"/>
</linearGradient>
</defs>
</svg>
