<svg width="265" height="174" viewBox="0 0 265 174" fill="none" xmlns="http://www.w3.org/2000/svg">
<rect width="265" height="174" fill="url(#paint0_linear_739_28)"/>
<path d="M58.3438 79.0469C57.2083 79.0469 56.3854 79.5833 55.875 80.6562C55.6667 81.1354 55.5469 81.6719 55.5156 82.2656H58.3438V88.8594H48.8281V82.5625C48.8281 78.875 50.5729 76.5312 54.0625 75.5312C55.2604 75.1875 56.6875 75.0156 58.3438 75.0156V79.0469ZM70.0781 79.0469C68.8802 79.0469 68.0573 79.5833 67.6094 80.6562C67.401 81.1354 67.2865 81.6719 67.2656 82.2656H70.0781V88.8594H60.5781V82.5625C60.5781 78.875 62.3177 76.5312 65.7969 75.5312C66.9948 75.1875 68.4219 75.0156 70.0781 75.0156V79.0469ZM85.6719 84.8281C86.8385 84.8281 87.6615 84.2917 88.1406 83.2188C88.349 82.7396 88.4688 82.1979 88.5 81.5938H85.6719V75.0156H95.1875V81.3125C95.1875 85 93.4427 87.3438 89.9531 88.3438C88.7552 88.6875 87.3281 88.8594 85.6719 88.8594V84.8281ZM73.9375 84.8281C75.0938 84.8281 75.9115 84.2917 76.3906 83.2188C76.5885 82.7396 76.7083 82.1979 76.75 81.5938H73.9375V75.0156H83.4375V81.3125C83.4375 85 81.6979 87.3438 78.2188 88.3438C77.0208 88.6875 75.5938 88.8594 73.9375 88.8594V84.8281Z" fill="black"/>
<path d="M132.912 92.0156C132.938 93.0052 132.951 94.4408 132.951 96.3223C132.652 96.3613 132.352 96.3809 132.053 96.3809C130.673 96.3809 129.283 95.9251 127.883 95.0137C126.405 95.9251 124.725 96.3809 122.844 96.3809C121.359 96.3809 119.953 96.0391 118.625 95.3555C117.303 94.6654 116.232 93.6953 115.412 92.4453C114.598 91.1888 114.191 89.7598 114.191 88.1582C114.191 86.5501 114.582 85.1276 115.363 83.8906C116.145 82.6536 117.193 81.6901 118.508 81C119.823 80.3099 121.268 79.9648 122.844 79.9648C125.37 79.9648 127.466 80.694 129.133 82.1523C130.839 83.6497 131.691 85.7591 131.691 88.4805C131.691 89.5221 131.447 90.5703 130.959 91.625C131.74 91.8854 132.391 92.0156 132.912 92.0156ZM124.846 88.7051C125.314 87.7676 125.549 86.9375 125.549 86.2148C125.555 85.4922 125.272 85.0202 124.699 84.7988C124.504 84.7207 124.273 84.6816 124.006 84.6816C123.745 84.6816 123.482 84.7598 123.215 84.916C122.954 85.0723 122.697 85.2806 122.443 85.541C121.923 86.0749 121.473 86.7422 121.096 87.543C120.718 88.3372 120.529 89.0501 120.529 89.6816C120.529 90.7624 121.076 91.3027 122.17 91.3027C122.515 91.3027 122.893 91.1237 123.303 90.7656C123.062 90.4922 122.824 90.2155 122.59 89.9355C122.355 89.6556 122.121 89.3757 121.887 89.0957L122.951 87.5039C123.485 87.8685 124.117 88.2689 124.846 88.7051ZM140.119 89.5156C140.119 91.651 140.637 92.7188 141.672 92.7188C142.193 92.7188 142.495 92.4648 142.58 91.957C142.606 91.8008 142.619 91.6283 142.619 91.4395V83.8613H148.42V96H145.217L143.82 94.0957C142.993 95.222 141.799 95.9544 140.236 96.293C138.322 96.7031 136.779 96.3776 135.607 95.3164C134.722 94.5156 134.279 93.4577 134.279 92.1426V83.8613H140.119V89.5156ZM159.172 87.3184C159.042 87.2533 158.872 87.2207 158.664 87.2207C158.462 87.2207 158.238 87.2826 157.99 87.4062C157.743 87.5234 157.499 87.6862 157.258 87.8945C156.75 88.3372 156.324 88.8743 155.979 89.5059C155.633 90.1374 155.461 90.7201 155.461 91.2539C155.461 91.7812 155.663 92.1361 156.066 92.3184C156.21 92.3835 156.385 92.416 156.594 92.416C156.802 92.416 157.02 92.3542 157.248 92.2305C157.476 92.1003 157.704 91.9277 157.932 91.7129C158.407 91.2637 158.824 90.7201 159.182 90.082C159.54 89.4375 159.719 88.8613 159.719 88.3535C159.719 87.8457 159.536 87.5007 159.172 87.3184ZM157.277 96.3613C155.415 96.3613 153.811 95.7721 152.463 94.5938C151.024 93.3438 150.305 91.7715 150.305 89.877C150.305 87.9759 150.979 86.4232 152.326 85.2188C153.674 84.0078 155.337 83.4023 157.316 83.4023C159.296 83.4023 160.959 83.9948 162.307 85.1797C163.654 86.3581 164.331 87.9368 164.338 89.916C164.344 91.1855 164.022 92.3086 163.371 93.2852C162.72 94.2617 161.851 95.0169 160.764 95.5508C159.676 96.0846 158.514 96.3548 157.277 96.3613ZM175.451 95.1211C174.214 95.9609 172.902 96.3809 171.516 96.3809C170.135 96.3809 169.012 95.9902 168.146 95.209C167.281 94.4212 166.848 93.3633 166.848 92.0352V86.957H165.734V83.8613H166.848V80.5801L172.688 79.9844V83.8613H175.451V86.957H172.688V90.0234C172.688 90.9414 172.893 91.6087 173.303 92.0254C173.719 92.4355 174.436 92.6406 175.451 92.6406V95.1211ZM185.188 87.3379C185.188 86.765 184.921 86.4785 184.387 86.4785C183.775 86.5371 183.378 86.8529 183.195 87.4258C183.104 87.6992 183.039 88.0182 183 88.3828C182.967 88.7409 182.915 89.125 182.844 89.5352L184.982 89.0566L185.168 87.5625L185.188 87.3379ZM183.869 91.7812C183.869 91.7812 183.69 91.7812 183.332 91.7812C183.163 91.7812 183 91.7747 182.844 91.7617C182.844 92.5365 183.257 92.9596 184.084 93.0312C184.312 93.0508 184.533 93.0605 184.748 93.0605C185.301 93.0605 185.995 92.9336 186.828 92.6797C187.668 92.4258 188.42 92.0124 189.084 91.4395L189.689 94.4766C188.238 95.7331 186.044 96.3613 183.107 96.3613C181.421 96.3613 179.973 95.8698 178.762 94.8867C177.447 93.8125 176.789 92.3249 176.789 90.4238C176.789 88.9915 177.16 87.7057 177.902 86.5664C178.592 85.5247 179.527 84.7337 180.705 84.1934C181.883 83.653 183.156 83.3828 184.523 83.3828C186.294 83.3828 187.632 83.7702 188.537 84.5449C189.449 85.3197 189.901 86.2767 189.895 87.416C189.895 88.5553 189.351 89.5677 188.264 90.4531C187.176 91.3385 185.712 91.7812 183.869 91.7812ZM200.93 87.5039C199.484 87.1654 198.433 86.9961 197.775 86.9961C197.587 86.9961 197.44 87.0384 197.336 87.123C197.238 87.2077 197.189 87.3021 197.189 87.4062C197.189 87.6211 197.456 87.8392 197.99 88.0605C198.531 88.2754 199.025 88.487 199.475 88.6953C199.924 88.9036 200.311 89.1576 200.637 89.457C201.34 90.1081 201.691 91.0781 201.691 92.3672C201.691 93.6497 201.226 94.6361 200.295 95.3262C199.364 96.0163 198.104 96.3613 196.516 96.3613C194.927 96.3613 193.658 96.2148 192.707 95.9219C192.29 95.7982 191.971 95.6517 191.75 95.4824V91.8594C191.841 91.8659 192.001 91.9082 192.229 91.9863C192.456 92.0645 192.834 92.1882 193.361 92.3574C193.889 92.5202 194.367 92.6016 194.797 92.6016C195.233 92.6016 195.451 92.4421 195.451 92.123C195.451 91.8757 195.256 91.6348 194.865 91.4004C194.689 91.2962 194.491 91.1888 194.27 91.0781C193.352 90.6289 192.694 90.1113 192.297 89.5254C191.906 88.9329 191.711 88.2396 191.711 87.4453C191.711 86.0326 192.284 84.9779 193.43 84.2812C194.393 83.6953 195.653 83.4023 197.209 83.4023C198.296 83.4023 199.387 83.5098 200.48 83.7246C200.715 83.7702 200.865 83.8027 200.93 83.8223V87.5039Z" fill="black"/>
<defs>
<linearGradient id="paint0_linear_739_28" x1="132.5" y1="0" x2="132.5" y2="174" gradientUnits="userSpaceOnUse">
<stop stop-color="#9CBCBE"/>
<stop offset="1" stop-color="#729EA0"/>
</linearGradient>
</defs>
</svg>
